<svg width="904" height="336" viewBox="0 0 904 336" fill="none" xmlns="http://www.w3.org/2000/svg">
<path d="M100.752 0C82.8453 55.4663 57.702 108.859 35.1962 162.556C27.7949 180.214 20.2399 197.866 13.7517 215.889C9.66258 227.248 6.31191 238.934 1.58506 250.056C-3.33305 261.628 4.43773 224.939 8.0295 212.889C23.3122 161.618 45.624 111.147 70.8628 64.1111C79.1555 48.6567 88.242 33.5105 98.7517 19.4444C103.532 13.0465 109.367 4.58474 117.752 2.66667C151.311 -5.01034 162.529 40.7893 166.696 63.8889C174.587 107.629 175.04 152.969 175.974 197.278C176.407 217.829 177.178 238.799 174.696 259.278C174.229 263.136 174.433 280.345 167.752 275" transform="translate(34.2483 59)" stroke="#D9D9D9" stroke-linecap="round" stroke-linejoin="round"/>
<path d="M0 222.125C26.813 213.106 53.849 204.892 80.7778 196.236C204.17 156.57 326.179 114.811 453.167 87.5135C474.444 82.9398 495.816 78.7202 517.333 75.458C525.789 74.176 534.559 72.217 542.944 73.9024C545.214 74.3587 541.368 78.6132 539.444 79.9024C530.966 85.5856 521.446 89.5358 512.444 94.3469C433.702 136.431 355.213 179.391 271.333 210.569C239.044 222.571 140.362 253.356 172.889 242.014C223.427 224.39 276.373 212.186 328.389 200.014C346.518 195.771 379.717 188.032 400.278 184.847C428.586 180.461 395.211 194.493 391.667 196.236C379.188 202.37 355.676 213.048 343 218.569C333.672 222.632 304.956 232.076 315.056 230.847C343.663 227.364 372.122 219.748 400.389 214.236C442.682 205.988 485.663 197.566 528.778 195.236C532.495 195.035 536.233 194.956 539.944 195.236C541.673 195.366 544.081 194.988 545 196.458C545.787 197.718 544.157 199.371 543.278 200.569C541.159 203.455 538.591 205.987 536.111 208.569C535.883 208.807 512.526 232.031 512.444 232.125C511.183 233.566 507.706 237.324 509.611 237.125C514.175 236.647 518.033 233.43 522 231.125C533.789 224.273 545.282 216.925 556.833 209.68C644.614 154.622 731.294 97.8793 820 44.2913C838.129 33.3394 856.105 22.1048 874.667 11.9024C882.989 7.3283 891.128 1.14994 900.556 0.013552C903.516 -0.343261 901.241 6.44303 899.556 8.90244C891.523 20.6215 881.375 30.7421 872.111 41.5136C858.152 57.7431 843.974 73.7828 829.889 89.9024C798.387 125.954 766.901 162.019 735.333 198.014C714.305 221.991 690.283 245.791 671.444 271.791C664.263 281.702 669.733 281.125 678 281.125" transform="translate(1 0.875336)" stroke="#D9D9D9" stroke-linecap="round" stroke-linejoin="round"/>
</svg>
